<?xml version="1.0" encoding="UTF-8"?>
<svg xmlns="http://www.w3.org/2000/svg" xmlns:xlink="http://www.w3.org/1999/xlink" width="146px" height="103px" viewBox="0 0 145 103" version="1.1">
<g id="surface1">
<path style=" stroke:none;fill-rule:nonzero;fill:rgb(100%,100%,100%);fill-opacity:1;" d="M 56.773438 39.847656 C 56.773438 39.1875 57.304688 38.65625 57.960938 38.65625 L 64.742188 38.65625 L 64.742188 62.851562 C 64.742188 63.511719 64.210938 64.046875 63.554688 64.046875 L 56.773438 64.046875 Z M 56.773438 39.847656 "/>
<path style=" stroke:none;fill-rule:nonzero;fill:rgb(100%,100%,100%);fill-opacity:1;" d="M 74.335938 45.984375 C 74.335938 45.972656 74.328125 45.960938 74.316406 45.960938 L 66.199219 45.960938 L 66.199219 39.851562 C 66.199219 39.191406 66.730469 38.652344 67.390625 38.652344 L 93.183594 38.652344 L 90.4375 45.960938 L 82.265625 45.960938 L 82.265625 62.851562 C 82.265625 63.511719 81.734375 64.046875 81.074219 64.046875 L 74.335938 64.046875 Z M 74.335938 45.984375 "/>
<path style=" stroke:none;fill-rule:nonzero;fill:rgb(100%,100%,100%);fill-opacity:1;" d="M 43.960938 64.777344 C 39.0625 64.777344 34.394531 63.371094 31.441406 61.011719 L 34.667969 54.929688 C 37.253906 56.863281 41.042969 58.109375 44.367188 58.109375 C 45.925781 58.109375 46.714844 57.691406 46.714844 56.871094 L 46.714844 56.796875 C 46.714844 55.964844 45.851562 55.535156 43.019531 54.96875 C 37.523438 53.839844 32.15625 52.273438 32.15625 46.6875 L 32.15625 46.613281 C 32.15625 41.335938 36.441406 37.925781 43.070312 37.925781 C 47.929688 37.925781 51.613281 39.035156 54.65625 41.421875 L 51.375 47.585938 C 48.179688 45.113281 44.9375 44.59375 42.773438 44.59375 C 40.957031 44.59375 40.761719 45.429688 40.761719 45.792969 L 40.761719 45.867188 C 40.761719 46.703125 41.65625 47.15625 44.308594 47.660156 C 50.917969 48.882812 55.320312 50.765625 55.320312 55.976562 L 55.320312 56.050781 C 55.320312 61.433594 50.96875 64.777344 43.960938 64.777344 "/>
<path style=" stroke:none;fill-rule:nonzero;fill:rgb(100%,100%,100%);fill-opacity:1;" d="M 104.246094 39.65625 C 104.019531 39.070312 103.449219 38.652344 102.789062 38.652344 L 95.820312 38.652344 C 95.15625 38.652344 94.589844 39.070312 94.363281 39.65625 L 85.195312 64.046875 L 93.898438 64.046875 L 99.320312 49.625 L 101.046875 54.222656 L 99.144531 54.222656 L 96.648438 60.863281 L 103.542969 60.863281 L 104.742188 64.046875 L 113.414062 64.046875 Z M 104.246094 39.65625 "/>
</g>
</svg>
